<svg width="80" height="40" viewBox="0 0 80 40" fill="none" xmlns="http://www.w3.org/2000/svg">
<path fill-rule="evenodd" clip-rule="evenodd" d="M48.941 26.4495C44.6251 29.8103 38.3694 31.6034 32.9834 31.6034C25.4313 31.6034 18.6325 28.6525 13.4889 23.7445C13.0848 23.3586 13.4469 22.8326 13.9318 23.1332C19.4827 26.5452 26.3462 28.5978 33.436 28.5978C38.2175 28.5978 43.4774 27.5527 48.3139 25.3839C49.0445 25.056 49.6555 25.8894 48.941 26.4495Z" fill="#FF9900"/>
<path fill-rule="evenodd" clip-rule="evenodd" d="M50.7347 24.2808C50.1851 23.5363 47.0879 23.929 45.6978 24.1032C45.2743 24.1579 45.2096 23.7685 45.5911 23.4884C48.0578 21.6544 52.1054 22.1838 52.5774 22.7985C53.0494 23.4167 52.4546 27.7031 50.1366 29.7489C49.781 30.0631 49.4415 29.8958 49.5999 29.4791C50.1204 28.1061 51.2875 25.0288 50.7347 24.2808Z" fill="#FF9900"/>
<path fill-rule="evenodd" clip-rule="evenodd" d="M45.8904 10.8198V9.03273C45.8904 8.76227 46.0849 8.58083 46.3183 8.58083H53.8932C54.1363 8.58083 54.3308 8.7657 54.3308 9.03273V10.5631C54.3276 10.8198 54.1234 11.1553 53.7603 11.686L49.8351 17.6053C51.2937 17.5676 52.8333 17.797 54.1558 18.5844C54.454 18.7625 54.535 19.0226 54.5577 19.2794V21.1863C54.5577 21.4465 54.2854 21.7512 54.0002 21.5937C51.6697 20.303 48.5742 20.1627 45.9974 21.6074C45.7348 21.7581 45.4593 21.4568 45.4593 21.1966V19.3855C45.4593 19.0945 45.4626 18.5981 45.7381 18.1565L50.2857 11.2683H46.328C46.0849 11.2683 45.8904 11.0869 45.8904 10.8198Z" fill="white"/>
<path fill-rule="evenodd" clip-rule="evenodd" d="M18.3912 21.6477H16.1398C15.9245 21.6305 15.7535 21.455 15.7376 21.2313V8.6743C15.7376 8.42309 15.9308 8.2235 16.1714 8.2235H18.2708C18.4893 8.23382 18.6635 8.41621 18.6793 8.64333V10.2848H18.7205C19.2683 8.69839 20.2974 7.95853 21.6843 7.95853C23.0934 7.95853 23.9737 8.69839 24.607 10.2848C25.1516 8.69839 26.3897 7.95853 27.7165 7.95853C28.6601 7.95853 29.6924 8.3818 30.3225 9.33157C31.035 10.388 30.8893 11.9228 30.8893 13.2683L30.8862 21.1934C30.8862 21.4446 30.693 21.6477 30.4524 21.6477H28.2041C27.9793 21.6305 27.7988 21.4343 27.7988 21.1934V14.5381C27.7988 14.0082 27.8432 12.6868 27.7355 12.1843C27.5677 11.3412 27.0642 11.1038 26.4119 11.1038C25.8673 11.1038 25.2973 11.4995 25.0661 12.1327C24.835 12.7659 24.8571 13.8258 24.8571 14.5381V21.1934C24.8571 21.4446 24.664 21.6477 24.4233 21.6477H22.1751C21.9471 21.6305 21.7698 21.4343 21.7698 21.1934L21.7666 14.5381C21.7666 13.1376 21.9788 11.0763 20.3797 11.0763C18.7616 11.0763 18.825 13.0859 18.825 14.5381V21.1934C18.825 21.4446 18.6318 21.6477 18.3912 21.6477" fill="white"/>
<path fill-rule="evenodd" clip-rule="evenodd" d="M60.8846 7.95853C64.2568 7.95853 66.0819 11.0178 66.0819 14.9078C66.0819 18.666 64.065 21.6477 60.8846 21.6477C57.5732 21.6477 55.7704 18.5884 55.7704 14.7761C55.7704 10.9402 57.5955 7.95853 60.8846 7.95853ZM60.9038 10.4742C59.2289 10.4742 59.1234 12.8851 59.1234 14.3878C59.1234 15.8938 59.101 19.1084 60.8846 19.1084C62.6458 19.1084 62.7289 16.5151 62.7289 14.9348C62.7289 13.8948 62.6874 12.6521 62.3901 11.6661C62.1344 10.8085 61.6262 10.4742 60.9038 10.4742Z" fill="white"/>
<path fill-rule="evenodd" clip-rule="evenodd" d="M70.5087 21.6477H68.3034C68.0823 21.6305 67.9047 21.4343 67.9047 21.1934L67.9016 8.633C67.9203 8.40244 68.1041 8.2235 68.3283 8.2235H70.381C70.5741 8.23382 70.733 8.37836 70.7766 8.57451V10.4947H70.8171C71.4369 8.77754 72.3059 7.95853 73.8353 7.95853C74.8289 7.95853 75.7977 8.35427 76.4206 9.43825C77 10.4431 77 12.1327 77 13.3475V21.2519C76.9751 21.4722 76.7913 21.6477 76.5732 21.6477H74.3524C74.1499 21.6305 73.9817 21.4653 73.9599 21.2519V14.4315C73.9599 13.0584 74.1032 11.0487 72.5738 11.0487C72.035 11.0487 71.5397 11.4479 71.2936 12.0536C70.9821 12.821 70.9417 13.5849 70.9417 14.4315V21.1934C70.9385 21.4446 70.7454 21.6477 70.5087 21.6477" fill="white"/>
<path fill-rule="evenodd" clip-rule="evenodd" d="M39.8263 15.6067C39.8263 16.5399 39.8501 17.3182 39.3753 18.1471C38.992 18.8209 38.3816 19.2353 37.7067 19.2353C36.7808 19.2353 36.2382 18.5345 36.2382 17.5002C36.2382 15.4584 38.0797 15.0878 39.8263 15.0878V15.6067ZM42.258 21.4455C42.0986 21.587 41.8679 21.5971 41.6882 21.5028C40.8878 20.8424 40.742 20.5358 40.3045 19.9058C38.9818 21.2467 38.0424 21.6477 36.3298 21.6477C34.2983 21.6477 32.7213 20.4044 32.7213 17.9146C32.7213 15.9705 33.7794 14.6464 35.292 13.9995C36.6011 13.4268 38.429 13.3257 39.8263 13.1673V12.8574C39.8263 12.288 39.8704 11.6141 39.5313 11.1222C39.2396 10.6809 38.6766 10.4989 38.1781 10.4989C37.259 10.4989 36.4417 10.9672 36.2416 11.9376C36.2009 12.1532 36.0415 12.3655 35.821 12.3756L33.4844 12.1263C33.2877 12.0825 33.0672 11.9241 33.1249 11.6242C33.6607 8.80757 36.2246 7.95853 38.5172 7.95853C39.6907 7.95853 41.2236 8.2685 42.1494 9.15123C43.3229 10.2395 43.2109 11.6916 43.2109 13.2718V17.0049C43.2109 18.1268 43.679 18.6187 44.1198 19.2252C44.2725 19.4408 44.3064 19.7003 44.1097 19.862C43.6179 20.2697 42.7429 21.0277 42.2613 21.4523L42.2579 21.4455" fill="white"/>
<path fill-rule="evenodd" clip-rule="evenodd" d="M9.72915 15.6067C9.72915 16.5399 9.75163 17.3182 9.30194 18.1471C8.93897 18.8209 8.36401 19.2353 7.72159 19.2353C6.84469 19.2353 6.33397 18.5345 6.33397 17.5002C6.33397 15.4584 8.07813 15.0878 9.72915 15.0878V15.6067ZM12.0322 21.4455C11.8812 21.587 11.6628 21.5971 11.4926 21.5028C10.7345 20.8424 10.5996 20.5358 10.182 19.9058C8.92934 21.2467 8.0428 21.6477 6.41749 21.6477C4.49666 21.6477 2.99983 20.4044 2.99983 17.9146C2.99983 15.9705 4.00521 14.6464 5.43459 13.9995C6.67445 13.4268 8.40577 13.3257 9.72915 13.1673V12.8574C9.72915 12.288 9.7709 11.6141 9.45291 11.1222C9.17345 10.6809 8.64025 10.4989 8.17128 10.4989C7.30081 10.4989 6.52349 10.9672 6.33397 11.9376C6.29543 12.1532 6.14446 12.3655 5.93889 12.3756L3.72255 12.1263C3.53625 12.0825 3.33068 11.9241 3.38207 11.6242C3.89279 8.80757 6.31791 7.95853 8.48928 7.95853C9.60066 7.95853 11.0525 8.2685 11.9294 9.15123C13.0408 10.2395 12.9348 11.6916 12.9348 13.2718V17.0049C12.9348 18.1268 13.3781 18.6187 13.7956 19.2252C13.9434 19.4408 13.9755 19.7003 13.7892 19.862C13.3235 20.2697 12.4947 21.0277 12.0386 21.4523L12.0322 21.4455" fill="white"/>
</svg>
