<svg width="18" height="18" viewBox="0 0 18 18" fill="none" xmlns="http://www.w3.org/2000/svg">
<path d="M9 0C4.0293 0 0 4.0293 0 9C0 13.9707 4.0293 18 9 18C13.9707 18 18 13.9707 18 9C18 4.0293 13.9707 0 9 0ZM12.6 6.3C12.8304 6.3 13.0707 6.37741 13.2471 6.55291C13.5981 6.90481 13.5981 7.49519 13.2471 7.84709L9.87209 11.1942C8.83619 12.2292 7.25311 12.0744 6.4404 10.8558L5.54041 9.50581C5.26501 9.09271 5.38019 8.51671 5.79419 8.24041C6.20729 7.965 6.78329 8.08019 7.05959 8.49419L7.95959 9.84419C8.14139 10.1169 8.37451 10.1601 8.60581 9.92791L11.9529 6.55291C12.1293 6.37741 12.3696 6.3 12.6 6.3Z" fill="#FAAD31"/>
</svg>
