<svg width="20" height="20" viewBox="0 0 20 20" fill="none" xmlns="http://www.w3.org/2000/svg">
<circle cx="10" cy="9.99998" r="7.99998" fill="url(#paint0_linear_5034_445)"/>
<circle cx="9.99992" cy="9.99995" r="7.06206" fill="url(#paint1_linear_5034_445)"/>
<circle cx="9.99983" cy="10" r="6.28964" fill="url(#paint2_linear_5034_445)"/>
<g filter="url(#filter0_d_5034_445)">
<path d="M12.7387 7.43861C11.9777 6.13726 11.015 5.42068 10.0277 5.42068C9.04039 5.42068 8.07766 6.13726 7.31664 7.43861C6.70114 8.4907 6.30354 9.81534 6.30354 10.8134C6.30354 12.89 7.97415 14.5793 10.0277 14.5793C12.0812 14.5793 13.7518 12.89 13.7518 10.8134C13.7518 9.81534 13.3542 8.49044 12.7387 7.43836V7.43861ZM7.31588 10.8134C7.31588 9.99807 7.6664 8.85129 8.18801 7.95967C8.18801 7.95941 8.18851 7.9589 8.18851 7.95864C8.20977 7.9223 8.26368 7.92921 8.27557 7.96965C8.48386 8.68085 9.16592 9.18347 9.8862 9.714C10.6034 10.2425 11.345 10.7889 11.5039 11.497C11.6289 12.0544 11.5115 12.5967 11.1731 13.0243C11.1716 13.0264 11.1701 13.0282 11.1686 13.0302C10.9127 13.3509 10.5285 13.54 10.1213 13.5541C10.0902 13.5551 10.0588 13.5556 10.0274 13.5556C8.5322 13.5556 7.31563 12.3254 7.31563 10.8134H7.31588ZM12.4016 12.1378C12.3753 12.1857 12.3032 12.1639 12.3069 12.1092C12.3242 11.854 12.3039 11.5914 12.2444 11.3271C12.0225 10.3377 11.125 9.67663 10.3334 9.09339C9.69613 8.62378 9.09405 8.18027 8.98902 7.69428C8.98826 7.69095 8.9875 7.68762 8.98699 7.68455C8.87918 7.16708 9.18971 6.6578 9.68879 6.49939C9.80319 6.46305 9.91657 6.44436 10.0279 6.44436C10.6338 6.44436 11.3045 6.99664 11.8676 7.95967C12.3892 8.85129 12.7397 9.99832 12.7397 10.8134C12.7397 11.2935 12.617 11.745 12.4019 12.1378H12.4016Z" fill="url(#paint3_linear_5034_445)"/>
</g>
<defs>
<filter id="filter0_d_5034_445" x="6.30354" y="5.42068" width="7.44826" height="9.54481" filterUnits="userSpaceOnUse" color-interpolation-filters="sRGB">
<feFlood flood-opacity="0" result="BackgroundImageFix"/>
<feColorMatrix in="SourceAlpha" type="matrix" values="0 0 0 0 0 0 0 0 0 0 0 0 0 0 0 0 0 0 127 0" result="hardAlpha"/>
<feOffset dy="0.386206"/>
<feComposite in2="hardAlpha" operator="out"/>
<feColorMatrix type="matrix" values="0 0 0 0 0.783333 0 0 0 0 0.343338 0 0 0 0 0.0456944 0 0 0 1 0"/>
<feBlend mode="normal" in2="BackgroundImageFix" result="effect1_dropShadow_5034_445"/>
<feBlend mode="normal" in="SourceGraphic" in2="effect1_dropShadow_5034_445" result="shape"/>
</filter>
<linearGradient id="paint0_linear_5034_445" x1="10" y1="2" x2="10" y2="18" gradientUnits="userSpaceOnUse">
<stop stop-color="#FAAD31"/>
<stop offset="1" stop-color="#FF6915"/>
</linearGradient>
<linearGradient id="paint1_linear_5034_445" x1="9.99992" y1="2.9379" x2="9.99992" y2="17.062" gradientUnits="userSpaceOnUse">
<stop stop-color="#FF6915"/>
<stop offset="1" stop-color="#FAAD31"/>
</linearGradient>
<linearGradient id="paint2_linear_5034_445" x1="9.99983" y1="3.71036" x2="9.99983" y2="16.2896" gradientUnits="userSpaceOnUse">
<stop stop-color="#FAAD31"/>
<stop offset="1" stop-color="#FF6915"/>
</linearGradient>
<linearGradient id="paint3_linear_5034_445" x1="10.0277" y1="5.42068" x2="10.0277" y2="14.5793" gradientUnits="userSpaceOnUse">
<stop stop-color="#F5F5F5"/>
<stop offset="1" stop-color="#FAAD31"/>
</linearGradient>
</defs>
</svg>
