<svg width="12" height="12" viewBox="0 0 12 12" fill="none" xmlns="http://www.w3.org/2000/svg">
<path d="M5.99969 0C5.3665 0 4.73692 0.249155 4.25392 0.731844L0.724506 4.25895C-0.241502 5.22493 -0.241502 6.78287 0.724506 7.74885L4.25392 11.276C5.22052 12.2413 6.77948 12.2413 7.74608 11.276L11.2755 7.74885C12.2415 6.78287 12.2415 5.22493 11.2755 4.25895L7.74608 0.731844C7.26248 0.249155 6.63288 0 5.99969 0ZM5.99969 3.0018C6.33191 3.0018 6.60044 3.27076 6.60044 3.60216V6.60396C6.60044 6.93596 6.33191 7.20432 5.99969 7.20432C5.66808 7.20432 5.39894 6.93596 5.39894 6.60396V3.60216C5.39894 3.27076 5.66808 3.0018 5.99969 3.0018ZM5.99969 7.80468C6.33191 7.80468 6.60044 8.07364 6.60044 8.40504C6.60044 8.73704 6.33191 9.0054 5.99969 9.0054C5.66808 9.0054 5.39894 8.73704 5.39894 8.40504C5.39894 8.07364 5.66808 7.80468 5.99969 7.80468Z" fill="#CA5E64"/>
</svg>
