<svg width="80" height="40" viewBox="0 0 80 40" fill="none" xmlns="http://www.w3.org/2000/svg">
<path d="M50.2909 9C45.4626 9 41.1479 11.4989 41.1479 16.1158C41.1479 21.4105 48.8002 21.7762 48.8002 24.4361C48.8002 25.5561 47.5149 26.5586 45.3195 26.5586C42.2038 26.5586 39.8751 25.1577 39.8751 25.1577L38.8787 29.8167C38.8787 29.8167 41.5613 31 45.1229 31C50.4017 31 54.5555 28.3784 54.5555 23.6826C54.5555 18.0878 46.8712 17.7329 46.8712 15.2641C46.8712 14.3868 47.9264 13.4255 50.1155 13.4255C52.5855 13.4255 54.6007 14.4443 54.6007 14.4443L55.5758 9.94453C55.5758 9.94453 53.3831 9 50.2909 9ZM6.11691 9.33961L6 10.0188C6 10.0188 8.03126 10.39 9.86074 11.1305C12.2163 11.9796 12.3841 12.4739 12.7809 14.0092L17.1039 30.6498H22.899L31.8268 9.33961H26.045L20.3084 23.8285L17.9675 11.547C17.7528 10.1414 16.6654 9.33961 15.3343 9.33961H6.11691ZM34.1518 9.33961L29.6161 30.6498H35.1296L39.6493 9.33961H34.1518ZM64.9022 9.33961C63.5727 9.33961 62.8683 10.0503 62.3514 11.2923L54.2738 30.6498H60.0556L61.1743 27.4235H68.2182L68.8984 30.6498H74L69.5494 9.33961H64.9022ZM65.6541 15.097L67.3679 23.0936H62.7765L65.6541 15.097Z" fill="white"/>
</svg>
